<?xml version="1.0" encoding="UTF-8"?>
<svg version="1.1" xmlns="http://www.w3.org/2000/svg" width="300" height="44">
<path d="M0 0 C14.52 0 29.04 0 44 0 C44 14.52 44 29.04 44 44 C29.48 44 14.96 44 0 44 C0 29.48 0 14.96 0 0 Z M14 15 C14 19.62 14 24.24 14 29 C18.95 29 23.9 29 29 29 C29 24.38 29 19.76 29 15 C24.05 15 19.1 15 14 15 Z " fill="#175693" transform="translate(0,0)"/>
<path d="M0 0 C3.3 0 6.6 0 10 0 C10.33 4.29 10.66 8.58 11 13 C12.32 12.34 13.64 11.68 15 11 C20.93595428 10.3150822 25.17616383 11.64428788 30 15 C33.83627076 19.13136851 34.76034223 23.05976647 35.09765625 28.5390625 C34.89039548 33.76203395 32.83819321 37.05958811 29.4375 40.875 C25.78961221 44.05520987 23.84044467 44.15854276 19.0625 44.1875 C17.47115234 44.20876953 17.47115234 44.20876953 15.84765625 44.23046875 C13 44 13 44 10 42 C9.67 42.66 9.34 43.32 9 44 C6.03 44 3.06 44 0 44 C0 29.48 0 14.96 0 0 Z M11.625 21.5 C9.34583567 25.00640667 9.18246441 27.92900647 10 32 C11.45997987 34.62716577 11.45997987 34.62716577 14 36 C17.60146865 36.60024477 19.27859404 36.45562482 22.375 34.5 C24.65416433 30.99359333 24.81753559 28.07099353 24 24 C22.54002013 21.37283423 22.54002013 21.37283423 20 20 C16.39853135 19.39975523 14.72140596 19.54437518 11.625 21.5 Z " fill="#145492" transform="translate(100,0)"/>
<path d="M0 0 C5.16075422 5.42540828 5 8.15321051 5 16 C-2.59 16 -10.18 16 -18 16 C-14.67684424 20.03014357 -14.67684424 20.03014357 -12 20.4609375 C-8.21975179 20.29850496 -5.25217735 20.16811824 -2 18 C-0.35 19.65 1.3 21.3 3 23 C2 26 2 26 -0.09765625 27.66015625 C-3.71493783 29.33004532 -6.4616852 29.43349616 -10.4375 29.4375 C-11.71496094 29.45683594 -12.99242187 29.47617187 -14.30859375 29.49609375 C-19.69957389 28.77159166 -22.72716781 26.41043567 -26.3125 22.4375 C-29.26442582 18.17360715 -29.50958437 14.04776973 -29 9 C-27.17304796 3.62661166 -23.67606955 0.08721151 -19 -3 C-11.92355199 -5.27212838 -6.04316005 -4.07256438 0 0 Z M-18 7 C-18.33 7.99 -18.66 8.98 -19 10 C-14.38 10 -9.76 10 -5 10 C-5.51931923 6.01681682 -5.51931923 6.01681682 -7.875 4.75 C-12.18916733 3.22735271 -14.43308017 4.46560959 -18 7 Z " fill="#145492" transform="translate(166,15)"/>
<path d="M0 0 C3.01177693 1.77713546 5.4108136 3.8216272 7 7 C7.084915 8.8863912 7.107193 10.77578515 7.09765625 12.6640625 C7.09443359 13.78554688 7.09121094 14.90703125 7.08789062 16.0625 C7.07532227 17.8259375 7.07532227 17.8259375 7.0625 19.625 C7.05798828 20.80835937 7.05347656 21.99171875 7.04882812 23.2109375 C7.03701467 26.14067507 7.02054258 29.07031272 7 32 C3.7 32 0.4 32 -3 32 C-3.495 20.615 -3.495 20.615 -4 9 C-9.55016982 8.54072604 -9.55016982 8.54072604 -12.33691406 10.20825195 C-14.4319182 12.46533289 -14.53169573 13.61905732 -14.609375 16.66796875 C-14.64160156 17.56064453 -14.67382812 18.45332031 -14.70703125 19.37304688 C-14.72830078 20.76620117 -14.72830078 20.76620117 -14.75 22.1875 C-14.77964844 23.12787109 -14.80929688 24.06824219 -14.83984375 25.03710938 C-14.91051892 27.35761078 -14.95752628 29.67881113 -15 32 C-18.3 32 -21.6 32 -25 32 C-25 21.44 -25 10.88 -25 0 C-20.66666667 0 -16.33333333 0 -12 0 C-7.81074492 -1.39641836 -4.26294324 -1.08207588 0 0 Z " fill="#145492" transform="translate(243,12)"/>
<path d="M0 0 C9.9 0 19.8 0 30 0 C30 14.52 30 29.04 30 44 C29.67 44 29.34 44 29 44 C29 39.38 29 34.76 29 30 C19.43 30 9.86 30 0 30 C0 29.67 0 29.34 0 29 C4.95 29 9.9 29 15 29 C15 24.38 15 19.76 15 15 C10.05 15 5.1 15 0 15 C0 10.05 0 5.1 0 0 Z " fill="#72BAF6" transform="translate(14,0)"/>
<path d="M0 0 C3.3 0 6.6 0 10 0 C10 14.52 10 29.04 10 44 C6.7 44 3.4 44 0 44 C0 29.48 0 14.96 0 0 Z " fill="#1C5A96" transform="translate(65,0)"/>
<path d="M0 0 C0 3.3 0 6.6 0 10 C-2.05078125 10.45572917 -4.1015625 10.91145833 -6.15234375 11.3671875 C-8.20700294 11.82961523 -8.20700294 11.82961523 -9 14 C-9.15067214 15.4465242 -9.24861036 16.8987934 -9.31640625 18.3515625 C-9.35830078 19.20234375 -9.40019531 20.053125 -9.44335938 20.9296875 C-9.48267578 21.81914063 -9.52199219 22.70859375 -9.5625 23.625 C-9.60568359 24.5221875 -9.64886719 25.419375 -9.69335938 26.34375 C-9.79956715 28.56231239 -9.90029959 30.78113565 -10 33 C-13.3 33 -16.6 33 -20 33 C-20 22.44 -20 11.88 -20 1 C-15.66666667 1 -11.33333333 1 -7 1 C-4 0 -4 0 0 0 Z " fill="#135492" transform="translate(196,11)"/>
<path d="M0 0 C3.63 0 7.26 0 11 0 C11 10.56 11 21.12 11 32 C7.37 32 3.74 32 0 32 C0 21.44 0 10.88 0 0 Z " fill="#145492" transform="translate(200,12)"/>
<path d="M0 0 C3.63 0 7.26 0 11 0 C11 10.56 11 21.12 11 32 C7.37 32 3.74 32 0 32 C0 21.44 0 10.88 0 0 Z " fill="#145492" transform="translate(82,12)"/>
<path d="M0 0 C4.62 0 9.24 0 14 0 C14 4.62 14 9.24 14 14 C-0.19 14 -14.38 14 -29 14 C-29 13.67 -29 13.34 -29 13 C-19.43 13 -9.86 13 0 13 C0 8.71 0 4.42 0 0 Z " fill="#1F7CCC" transform="translate(29,30)"/>
<path d="M0 0 C4.62 0 9.24 0 14 0 C14 4.62 14 9.24 14 14 C9.38 14 4.76 14 0 14 C0 9.38 0 4.76 0 0 Z " fill="#197ED2" transform="translate(0,0)"/>
<path d="M0 0 C3.63 0 7.26 0 11 0 C11 3.3 11 6.6 11 10 C7.37 10 3.74 10 0 10 C0 6.7 0 3.4 0 0 Z " fill="#1F83D5" transform="translate(200,0)"/>
<path d="M0 0 C3.63 0 7.26 0 11 0 C11 3.3 11 6.6 11 10 C7.37 10 3.74 10 0 10 C0 6.7 0 3.4 0 0 Z " fill="#1F84D6" transform="translate(82,0)"/>
</svg>
